$MeshFormat
2.2 0 8
$EndMeshFormat
$PhysicalNames
5
1 1 "wall"
1 2 "outlet"
1 3 "inlet"
1 4 "probe"
2 10 "plasma"
$EndPhysicalNames
$Nodes
725
1 0 -0.04 0
2 0.12 -0.04 0
3 0.12 0.04 0
4 0 0.04 0
5 0.08699999999999999 0 0
6 0.075 0.012 0
7 0.063 0 0
8 0.075 -0.012 0
9 0.005999999999986407 -0.04 0
10 0.01199999999997514 -0.04 0
11 0.01799999999996021 -0.04 0
12 0.0239999999999423 -0.04 0
13 0.02999999999992385 -0.04 0
14 0.03599999999990255 -0.04 0
15 0.04199999999988451 -0.04 0
16 0.04799999999986892 -0.04 0
17 0.05399999999985088 -0.04 0
18 0.05999999999983231 -0.04 0
19 0.06599999999985381 -0.04 0
20 0.07199999999987126 -0.04 0
21 0.07799999999988327 -0.04 0
22 0.08399999999990072 -0.04 0
23 0.08999999999991817 -0.04 0
24 0.09599999999993562 -0.04 0
25 0.1019999999999531 -0.04 0
26 0.1079999999999651 -0.04 0
27 0.1139999999999825 -0.04 0
28 0.12 -0.034285714285723 0
29 0.12 -0.02857142857144824 0
30 0.12 -0.0228571428571784 0
31 0.12 -0.01714285714290837 0
32 0.12 -0.01142857142864086 0
33 0.12 -0.005714285714375558 0
34 0.12 -1.016617345861448e-13 0
35 0.12 0.005714285714194703 0
36 0.12 0.01142857142850114 0
37 0.12 0.01714285714280098 0
38 0.12 0.02285714285709601 0
39 0.12 0.02857142857140457 0
40 0.12 0.03428571428569143 0
41 0.1140000000000153 0.04 0
42 0.1080000000000257 0.04 0
43 0.1020000000000427 0.04 0
44 0.09600000000006392 0.04 0
45 0.09000000000007921 0.04 0
46 0.08400000000009994 0.04 0
47 0.07800000000011578 0.04 0
48 0.07200000000013271 0.04 0
49 0.06600000000014858 0.04 0
50 0.06000000000017067 0.04 0
51 0.05400000000014886 0.04 0
52 0.04800000000013112 0.04 0
53 0.04200000000011879 0.04 0
54 0.03600000000010105 0.04 0
55 0.03000000000008331 0.04 0
56 0.02400000000006555 0.04 0
57 0.01800000000004781 0.04 0
58 0.01200000000003548 0.04 0
59 0.006000000000017741 0.04 0
60 0 0.034285714285723 0
61 0 0.02857142857144824 0
62 0 0.0228571428571784 0
63 0 0.01714285714290837 0
64 0 0.01142857142864086 0
65 0 0.005714285714375558 0
66 0 1.016617345861448e-13 0
67 0 -0.005714285714194703 0
68 0 -0.01142857142850114 0
69 0 -0.01714285714280098 0
70 0 -0.02285714285709601 0
71 0 -0.02857142857140457 0
72 0 -0.03428571428569143 0
73 0.08685226008665355 0.00187721358356453 0
74 0.08641267819423537 0.003708203936520255 0
75 0.08569207828949628 0.005447885998374256 0
76 0.08470820392629116 0.00705342303605453 0
77 0.08348528136226732 0.00848528138620981 0
78 0.08205342302062324 0.009708203937502652 0
79 0.08044788599707199 0.01069207829015981 0
80 0.07870820393244049 0.01141267819556097 0
81 0.0768772135812706 0.01185226008701687 0
82 0.07312278641212457 0.01185226008597077 0
83 0.07129179604733057 0.0114126781889882 0
84 0.06955211398324675 0.01069207828013172 0
85 0.06794657694740444 0.009708203914273413 0
86 0.06651471860313622 0.008485281351613361 0
87 0.06529179605226285 0.007053423006536665 0
88 0.06430792169769742 0.005447885973240495 0
89 0.06358732180031662 0.00370820391975305 0
90 0.06314773991181027 0.001877213573865535 0
91 0.06314773991334645 -0.00187721358356453 0
92 0.06358732180576462 -0.003708203936520255 0
93 0.06430792171050372 -0.005447885998374256 0
94 0.06529179607370883 -0.00705342303605453 0
95 0.06651471863773267 -0.00848528138620981 0
96 0.06794657697937675 -0.009708203937502652 0
97 0.069552114002928 -0.01069207829015981 0
98 0.0712917960675595 -0.01141267819556097 0
99 0.07312278641872939 -0.01185226008701687 0
100 0.07687721358787543 -0.01185226008597077 0
101 0.07870820395266942 -0.0114126781889882 0
102 0.08044788601675325 -0.01069207828013172 0
103 0.08205342305259555 -0.009708203914273413 0
104 0.08348528139686377 -0.008485281351613361 0
105 0.08470820394773715 -0.007053423006536665 0
106 0.08569207830230258 -0.005447885973240495 0
107 0.08641267819968337 -0.00370820391975305 0
108 0.08685226008818972 -0.001877213573865535 0
109 0.06150985471484399 0.0009198462682345434 0
110 0.06262559033942942 -0.005435778639649076 0
111 0.005680767206400632 -0.008495390963881517 0
112 0.004948716593036255 0.008571428571508208 0
113 0.06344720809235138 0.00703362057348457 0
114 0.08547483833480315 -0.008780300903744579 0
115 0.08533676834528117 0.008828434214292833 0
116 0.03831308084817166 0.03428446013518313 0
117 0.03908354784579644 -0.03441456416978304 0
118 0.06594931630736656 -0.01053747849830582 0
119 0.08821815329486427 -0.003173397828652333 0
120 0.08824938433269976 0.003372938422354425 0
121 0.06780806071338938 0.01139037760116769 0
122 0.0718505265667083 0.01322578266165415 0
123 0.07599022609363837 0.01355518987172594 0
124 0.08210271472618827 -0.01159057695132602 0
125 0.07828608018212338 -0.01320751297924214 0
126 0.07422973762672974 -0.01361618163184278 0
127 0.08011444554842732 0.01291351029043073 0
128 0.06992307553984928 -0.01238503947482818 0
129 0.1151216753862149 0.01973140279009254 0
130 0.1141877434904419 -0.01929633783025164 0
131 0.1150209482225649 -0.002686579863667205 0
132 0.09259601391065554 0.03440016556706445 0
133 0.05688246890614649 0.0348396767192566 0
134 0.0926671867429615 -0.03442113096801892 0
135 0.05734606320079123 -0.03498928961171257 0
136 0.02099999999995126 -0.03480384757730912 0
137 0.02141358316522124 0.03436099333737945 0
138 0.08065719416807771 0.03445481258503226 0
139 0.06914830631362286 -0.0348242314060449 0
140 0.06880849988703773 0.034320809904334 0
141 0.08068643720246432 -0.03474756750108007 0
142 0.004863188196234011 -0.0203286127310508 0
143 0.1153767370901235 0.008576770379025281 0
144 0.004788284989651996 0.01970587760484607 0
145 0.1053591634633024 0.03502254079034904 0
146 0.1049999999999591 -0.03480384757728294 0
147 0.008840340171534946 0.03448662633553008 0
148 0.009666056493018738 -0.03485127206074842 0
149 0.1150512834069577 -0.03142857142858561 0
150 0.1150043262534647 0.03170386050250935 0
151 0.08656456052795281 0.007314363621852271 0
152 0.08726210950218395 0.009189424681119857 0
153 0.08594049122963211 0.0107304369692972 0
154 0.08789322635185205 0.0111361086944378 0
155 0.08924365056282403 0.009573642020266226 0
156 0.08985262266505847 0.01155850954630003 0
157 0.08655764776808772 0.01263071074941595 0
158 0.09123682910147038 0.01005265398919455 0
159 0.0920215020991845 0.01214516863438341 0
160 0.09359798950396871 0.01041799398592021 0
161 0.09444082185600916 0.01286035431558313 0
162 0.09242641165020374 0.01480268603703929 0
163 0.09545972987506374 0.0157589108923556 0
164 0.09638393802890904 0.01081227420882527 0
165 0.09502285682881412 0.008012398309655271 0
166 0.09834204912255637 0.008515630375350974 0
167 0.09725668293793961 0.005608341233824846 0
168 0.09322670358197971 0.01807071110965364 0
169 0.09659968223762871 0.01907319043387566 0
170 0.1000661166416265 0.01212750106554792 0
171 0.1004277828563374 0.006086232873161924 0
172 0.09922904232721717 0.003036763184416137 0
173 0.09585704069838379 0.002814804380776552 0
174 0.09786029632279777 0.0001603088402750873 0
175 0.1020451040205403 0.0006032596215281933 0
176 0.09985484728420937 -0.002532457028495938 0
177 0.09680478841793055 -0.00244295246546853 0
178 0.0977548929526524 -0.005347792676751849 0
179 0.1014672150731369 -0.005433413174790926 0
180 0.09970459725727489 -0.008443040764143147 0
181 0.09627610266475896 -0.008405666548426675 0
182 0.09781314086726704 -0.01128498479785887 0
183 0.0945032914744371 -0.0110902355277295 0
184 0.09603198607399212 -0.0140215799010089 0
185 0.09322206188536103 -0.01385609545353499 0
186 0.09425177776766433 -0.01671908862470419 0
187 0.09104557908884547 -0.01613694169375415 0
188 0.0977911666975497 -0.01732296614869702 0
189 0.1035835371696682 -0.008738910298633841 0
190 0.0924828323040708 -0.01951363124662597 0
191 0.08908869299775395 -0.01932314783779483 0
192 0.09065492464634989 0.007940649441761776 0
193 0.09336283242167322 -0.008197168984307201 0
194 0.08800125787277681 -0.01637022285877742 0
195 0.08588411811639211 -0.01858785604835306 0
196 0.08689448015491924 -0.02195746421812316 0
197 0.08409297200874072 -0.02120450354493865 0
198 0.08313756426283253 -0.0187171610381345 0
199 0.08114816935347458 -0.0204952464670077 0
200 0.08217463186255847 -0.0234971892118126 0
201 0.07927698660882922 -0.02278280779841243 0
202 0.0784313051016953 -0.02014579799820335 0
203 0.07641884920131936 -0.02202965604187978 0
204 0.077132529038245 -0.02488897191325201 0
205 0.07420669415757075 -0.02396775528967968 0
206 0.0736517195486916 -0.02076017226237415 0
207 0.07139006020115221 -0.02289916607417308 0
208 0.07081151058086363 -0.02009742759886465 0
209 0.06874193181711699 -0.02188455226458183 0
210 0.06825878447665765 -0.01880512927431971 0
211 0.06614670580953394 -0.02089942011983515 0
212 0.06565527176562549 -0.01819115241517425 0
213 0.06354295496176449 -0.02000444830170501 0
214 0.06300629647603603 -0.01724428035618138 0
215 0.06085207318925424 -0.01909163688679773 0
216 0.06022171966968515 -0.01595922322133328 0
217 0.05807134050828677 -0.01808263717131407 0
218 0.05727669515464038 -0.01503360523028356 0
219 0.05493735470698881 -0.01712849858574908 0
220 0.05436108522035178 -0.01383731598005409 0
221 0.05161274735619972 -0.01619502061398302 0
222 0.05119776221809606 -0.01190799858221889 0
223 0.04768674352088074 -0.01531691435617079 0
224 0.04716170374652059 -0.01084632211927256 0
225 0.04362493455213978 -0.01352311097886145 0
226 0.04268959354014382 -0.008772111899487428 0
227 0.03839937764733685 -0.01223759302466582 0
228 0.03746646853023566 -0.006662233639225837 0
229 0.04224188844126598 -0.003341559389778129 0
230 0.03676165178256148 -0.001061309897990255 0
231 0.04124359997111639 0.002437786009943912 0
232 0.03603430054613253 0.004572796522476384 0
233 0.04056425420062483 0.007894080648641401 0
234 0.03523260268296879 0.01019794568073029 0
235 0.03295906964082274 -0.01036269828524533 0
236 0.05010981076544804 -0.008743273797123981 0
237 0.03061648383725407 0.006799922433529879 0
238 0.04575658415085943 0.005396579554680552 0
239 0.04478055051896714 0.01070806640446578 0
240 0.0298334869246903 0.01261483179311427 0
241 0.04954612023997714 0.008885503341408446 0
242 0.04874215887973735 0.01317352177881807 0
243 0.05010491537562035 0.004802577183955794 0
244 0.04490819567142683 0.01597033497289413 0
245 0.05260136862154649 0.01165913783630123 0
246 0.05212301049461899 0.01543766791048783 0
247 0.05591912686184756 0.01415271259984913 0
248 0.05512546796080978 0.01775531511434864 0
249 0.05839339302326074 0.01667744138865229 0
250 0.05278897198718571 -0.02032451568029728 0
251 0.05791495959298451 0.01989611524821416 0
252 0.06139110181111771 0.0182327138221909 0
253 0.06069341124505194 0.0218865825758689 0
254 0.0638058536629776 0.02053628897190289 0
255 0.05451784891212499 0.02172308747100746 0
256 0.03408466367891451 -0.01619386953884575 0
257 0.02856055121981961 -0.01430177823535907 0
258 0.0250751238398047 0.009047569641866657 0
259 0.02430887545719042 0.01495322607711565 0
260 0.04396433400194735 -0.01839472573743667 0
261 0.02729418035703281 -0.008450078889027244 0
262 0.0567177492749885 -0.01207341271099236 0
263 0.06416834576957663 -0.02262619540083094 0
264 0.0228497790821956 -0.01246136818586976 0
265 0.02162714697978221 -0.006633868603872579 0
266 0.05838659810470901 -0.02137944830406032 0
267 0.02907753748474363 0.01858470044838639 0
268 0.05613271851343665 0.01088006910677811 0
269 0.06118905152739566 0.01502796717699766 0
270 0.02980431602938896 -0.02017248138457818 0
271 0.06340589759722969 0.02393155277470245 0
272 0.06647466317611067 0.02250174625063422 0
273 0.06695658809584897 0.01914925503928007 0
274 0.06904198173343495 0.02114452331248812 0
275 0.09386783668025858 0.02178711827806447 0
276 0.09029050383268793 0.02012172383594358 0
277 0.09788148675680272 0.02314862473491561 0
278 0.1011177342476551 0.01980920107369724 0
279 0.0690696531596493 0.02446968957775648 0
280 0.07156025692607507 0.02235846619110391 0
281 0.0722653187170576 0.01989963926108769 0
282 0.07428703394860604 0.02132377126276799 0
283 0.07475699835459113 0.02417612050746133 0
284 0.07694970553029862 0.02247900351532473 0
285 0.07648553177502944 0.01968357480684184 0
286 0.07903825949390739 0.02087574078147492 0
287 0.07917132752871406 0.02322091443472824 0
288 0.07890976208255404 0.01839588886796991 0
289 0.08104708772175591 0.01941418714494801 0
290 0.01952866191995864 0.01132982673185457 0
291 0.0187767407283957 0.01727534953244414 0
292 0.06910433583968632 -0.02485722952971853 0
293 0.06266304244259988 -0.01482221963037446 0
294 0.0704261111965428 -0.01761265731335661 0
295 0.09095870333984953 0.02439362286142784 0
296 0.08087275702510491 0.01709434407553435 0
297 0.08289619842399168 0.01805433329518827 0
298 0.08324973198683967 0.02039756828354966 0
299 0.08266448879410866 0.01574895451247364 0
300 0.08460382960139744 0.01671814535452934 0
301 0.08460187261461741 0.01221631060134966 0
302 0.07472498871624424 -0.02732107765574936 0
303 0.03538511009631013 -0.02202583821813033 0
304 0.03117702159764696 -0.02619663020289526 0
305 0.02540358310593966 -0.02423121468080715 0
306 0.0171469580120191 -0.01062196064347916 0
307 0.01607038467991258 -0.004691439481812597 0
308 0.01840448210508745 -0.01648903042378906 0
309 0.1026256002476035 0.02451497003872274 0
310 0.06007851697153272 0.02550113963516398 0
311 0.1054809453909952 -0.005057098542688019 0
312 0.1083911318218883 -0.008869880130679908 0
313 0.1056797355423816 -0.01295388200063649 0
314 0.07901336109155796 0.01624086267566183 0
315 0.02021435826554716 0.005348743229611798 0
316 0.06343516581087263 0.02783565045039278 0
317 0.01411441470838824 0.0136624747793317 0
318 0.02646129657207933 -0.002672723530178115 0
319 0.01283101439417215 -0.01460747897825354 0
320 0.01425684764331718 -0.02023313712699864 0
321 0.05289603379078178 0.006824519202925938 0
322 0.05319294396534495 0.003571427566474721 0
323 0.05101832075559337 0.0015652786843991 0
324 0.05385589461699294 0.0008410043395364526 0
325 0.05577357772157862 0.002540721615456755 0
326 0.05625013924715261 9.362214775881411e-05 0
327 0.05459693586981888 -0.001602135135211826 0
328 0.05684530908721908 -0.0021768852504554 0
329 0.05540753957750925 -0.003822016096894025 0
330 0.05757073798727193 -0.004286032915882212 0
331 0.05612438048795208 -0.005930122413821945 0
332 0.05825102766869007 -0.006374894962107679 0
333 0.05869045389188089 -0.002590929701519314 0
334 0.05292421315586419 -0.003548965699179655 0
335 0.05814908142908835 0.001484149062080565 0
336 0.05765959007344619 0.003864069073658623 0
337 0.05692807531700338 -0.008013666677775956 0
338 0.05899635402407404 -0.008408749796376715 0
339 0.05846491597003928 0.01239483505237475 0
340 0.05867017781489989 0.009874432153397486 0
341 0.06055845405579216 0.01135722439166645 0
342 0.05681952029897924 0.008344263943033265 0
343 0.05919079235300812 0.00778687784545147 0
344 0.0989323009948089 0.02814321449033843 0
345 0.1062386740035842 0.02054642735271348 0
346 0.05963374653405318 0.003278523407146846 0
347 0.01336533199104968 0.01961494044149215 0
348 0.01804638972447663 0.02322822987739045 0
349 0.01284484928919677 0.0255737483978418 0
350 0.07761503282034297 -0.02807088895341257 0
351 0.07607880570950432 -0.03150669260408837 0
352 0.08697505608898531 0.02308057989822263 0
353 0.0879035413476261 0.02713866015415287 0
354 0.06452311613272846 0.01758847737946363 0
355 0.06674509611275675 0.01653388708146582 0
356 0.06504418449766157 0.01524813201950062 0
357 0.06693984518348829 0.01459146487755501 0
358 0.06870171294116986 0.01558204533993552 0
359 0.0652954458518514 0.0132191966529374 0
360 0.1078618396899738 0.02553652352667456 0
361 0.1108761149278064 -0.01343310519863853 0
362 0.1079148522642181 -0.01826679704426521 0
363 0.1096932727331925 -0.0238667049521203 0
364 0.1041957126155216 -0.0228606016743165 0
365 0.06081484561334861 0.009206013117748008 0
366 0.0624193123319044 0.01060514814454501 0
367 0.08774128380151767 0.005586876008655262 0
368 0.08972114436432328 0.004765864260344236 0
369 0.09021420550847717 0.002857456372127355 0
370 0.09152753956710265 0.004302293344002461 0
371 0.09212175265331465 0.002400796302540408 0
372 0.09079407524450142 0.0009308559806793282 0
373 0.09278867354904649 0.0005141023047389775 0
374 0.09143256607204114 -0.0009401302286795945 0
375 0.08420949899933952 0.02627483523726395 0
376 0.09473671622966878 -0.006040501672029666 0
377 0.09223683571105781 -0.006088010326509932 0
378 0.09098540728605803 -0.00790672899755859 0
379 0.08975066353209404 -0.006003206367306014 0
380 0.08878904171291714 -0.007746448858773136 0
381 0.08970709773032043 -0.009569487525376574 0
382 0.09336978629745515 -0.00393430866702356 0
383 0.06010948923091437 -0.006861273942718373 0
384 0.06088962897870481 -0.008817192217405415 0
385 0.104081201017645 0.01536132723049495 0
386 0.07252526462368969 -0.01837224874369432 0
387 0.07202282038759067 -0.01640621837476091 0
388 0.07394454262854934 -0.01694727936196977 0
389 0.07031607603136888 -0.01572847409119748 0
390 0.05976484506882221 -0.01033419513090052 0
391 0.06169857637139586 -0.01068712307721332 0
392 0.06038244192720439 -0.01222831714725438 0
393 0.06271087340142525 -0.008967842127249295 0
394 0.06371164930013536 -0.01058579563130635 0
395 0.08940104468874005 -0.0004616605223079624 0
396 0.06206198245636035 0.01268840536827672 0
397 0.09104816060278129 -0.00427734180669365 0
398 0.08906552452652733 -0.01351436966363245 0
399 0.08674037732526879 -0.0140225714018824 0
400 0.08545451290535325 -0.01588817742468857 0
401 0.08457507439121788 -0.01387365622154271 0
402 0.08566936323825876 -0.01215910043523384 0
403 0.08304446320986263 -0.01539046493688314 0
404 0.09317359171304893 -0.001614639454043655 0
405 0.06498949529912357 -0.01570318400598159 0
406 0.06713373113811144 -0.01640894526168485 0
407 0.06661898323775182 -0.01428105455794049 0
408 0.06459681666709496 -0.01359425824690103 0
409 0.06589768875440763 0.01032037561126196 0
410 0.08038454950247198 -0.01280011670483015 0
411 0.07970616124294203 -0.01470973233330596 0
412 0.07783157869373353 -0.01521467813113129 0
413 0.07930357483285072 -0.01653172678673583 0
414 0.07744444359003289 -0.01702514850185066 0
415 0.06955609937921364 0.01263701774076079 0
416 0.07392876850745367 0.01350214225103741 0
417 0.07483014384985127 0.01516178830148313 0
418 0.07275649613831359 0.01508445613590163 0
419 0.07379689667390167 0.01708515402952688 0
420 0.07182411442329849 0.01665436149874056 0
421 0.06257021140587553 0.005146389796661863 0
422 0.0646190601929674 0.00863388220143471 0
423 0.08199200605463046 0.01184499894656737 0
424 0.07202687549539127 -0.01332972537501307 0
425 0.07801087523226936 0.01324699201298452 0
426 0.06144815531006916 -0.001066553309492366 0
427 0.06169821495802078 -0.003489458454283187 0
428 0.08411308302651231 -0.01036586239390984 0
429 0.08779295808216268 -0.005052956769363874 0
430 0.06796222698676532 -0.01145621016189583 0
431 0.05453447968904787 -0.00765019418047516 0
432 0.07633099520266615 -0.01358909855334562 0
433 0.07708928612493726 0.01721454566590623 0
434 0.08070532448791347 0.01499820535423581 0
435 0.09446490653527176 0.005495029412511944 0
436 0.04554745371850375 0.0003229403850386334 0
437 0.04639947757847483 -0.003450889325386103 0
438 0.05912622922086944 0.004808539378993449 0
439 0.02668183842519764 -0.03006467313177406 0
440 0.0597423992627599 6.772268749920047e-05 0
441 0.08771718597324729 -0.009354398563464995 0
442 0.08845088932890373 -0.01110647868030255 0
443 0.09041860122521274 -0.01146040426483581 0
444 0.05535376045634852 0.004969731244327797 0
445 0.08521958546480107 0.01411850956477096 0
446 0.08743119214752564 0.01489927813304448 0
447 0.0613819493883544 0.006938743323959041 0
448 0.0369548885480214 -0.02800718242285779 0
449 0.08659057697506327 -0.007102714670473577 0
450 0.07596137386370679 -0.01962137282642902 0
451 0.08684264758059611 0.01963403776761893 0
452 0.08893285145988773 0.01722133539871364 0
453 0.08485899765567913 0.03044566453830992 0
454 0.08019297332747835 0.02883373829495406 0
455 0.07673278279586405 0.03127969644911856 0
456 0.09478804123533642 0.0001000611248007276 0
457 0.06930826021824055 0.01866715760817197 0
458 0.0596854129323799 -0.004492263277543001 0
459 0.09195225970163 0.02858142933006031 0
460 0.02064928279831842 -0.02816363498931957 0
461 0.01552632298316424 -0.03151289360207703 0
462 0.07555300120605693 -0.01557474066893343 0
463 0.1099008289845228 0.01629871545451696 0
464 0.1075492922242609 0.01125473487420832 0
465 0.08332242117339668 0.01373174891960976 0
466 0.09297516007112985 0.007112822130240317 0
467 0.0616184538537965 0.003005954806250305 0
468 0.01701007437257338 0.0292293044840333 0
469 0.02275068842626037 0.02713788027881421 0
470 0.02766011908710491 0.03178825316026426 0
471 0.02913924388905166 0.02497170713874863 0
472 0.03287436067873196 0.03070568335813842 0
473 0.03542016895273338 0.02484808853243173 0
474 0.07134821631362993 -0.0300616110627767 0
475 0.04186898217490683 -0.02329260731091142 0
476 0.08252463777055752 -0.01338850249424086 0
477 0.05416658960366465 -0.01068748893659624 0
478 0.1061473285863642 -0.0291058623457933 0
479 0.1000026735572571 -0.02726050122296478 0
480 0.06358403684262741 -0.007183706411520261 0
481 0.08123397581404836 -0.01594875647591041 0
482 0.08088755570286113 -0.01802416610703432 0
483 0.04273976632040215 -0.02966636343670211 0
484 0.0474717070311146 -0.02611643671462237 0
485 0.04915305730320137 -0.03070699671301561 0
486 0.05277326065522591 -0.02725450827859464 0
487 0.03241389948806028 -0.03345188877752608 0
488 0.08687028568823763 -0.03477390008018191 0
489 0.08940464933847432 -0.02989041185888783 0
490 0.08462808038709176 -0.03056537131651227 0
491 0.06306675679560889 -0.03489373886898112 0
492 0.0606798323211669 -0.0304539919186751 0
493 0.06617530897346414 -0.03023876754129235 0
494 0.06277079020826976 0.0350755535331346 0
495 0.08730408712405437 -0.0257836265612919 0
496 0.09135323569011509 -0.02606016372641761 0
497 0.08382843418763726 0.01033676836023691 0
498 0.08849686477862176 0.00764820335771908 0
499 0.0704744948513551 0.01478180513999455 0
500 0.08690054013768708 0.03511316268523383 0
501 0.0900680216242998 -0.002459501384813481 0
502 0.09462672909226336 -0.02884407701662385 0
503 0.09881284465010218 -0.03347043413102484 0
504 0.03452594396551531 0.01567472293106461 0
505 0.01969402057424146 -0.02223233258214892 0
506 0.08875182831017865 0.001429467306069612 0
507 0.07558390426656224 0.02753329685720981 0
508 0.0725602649126926 0.03054717105646757 0
509 0.032098297896836 -0.004671370472528932 0
510 0.02411945535277878 -0.01831470091542536 0
511 0.01486885784389335 0.03478485058438475 0
512 0.01489000537951009 0.007711890054627579 0
513 0.01531008661982102 0.001428942868901485 0
514 0.009290278332807905 0.004255015082939486 0
515 0.01152857706850292 -0.008816998958680265 0
516 0.009686535245338327 -0.002837054492090317 0
517 0.0236832459516864 0.02102518222548325 0
518 0.05099193037678244 0.03481376965665802 0
519 0.05332025032994132 0.02988978026985533 0
520 0.04796159257451876 0.02967072384075641 0
521 0.04487772716131243 0.03472875493473299 0
522 0.04224464839427128 0.02951032745977929 0
523 0.04505850118650415 0.02442555105559437 0
524 0.09900000000005328 0.03480384757730937 0
525 0.07711582737550415 0.01523348413076711 0
526 0.1021567582822576 -0.01706890533611405 0
527 0.05762081668227025 0.006170629744186106 0
528 0.004930649760400414 -0.02577112889706837 0
529 0.1138966068934039 0.02589931302884845 0
530 0.00483508735978439 -0.01469187649212713 0
531 0.115058248630258 0.002886460323921736 0
532 0.1102233960066245 0.0004460497396304696 0
533 0.1143049962480032 -0.008729863482105098 0
534 0.00445632037504793 0.02556711526086242 0
535 0.004897595037808279 0.01384860277418263 0
536 0.072049068109263 0.02627853129864811 0
537 0.0684122288159395 0.02865624871644368 0
538 0.0594330840193099 0.02995072460622551 0
539 0.1101911736422665 0.006435032488383089 0
540 0.1057931722030136 0.003021502606687604 0
541 0.05051974551938046 0.02463259459081514 0
542 0.04781058443826001 0.01992430062506166 0
543 0.06422164427064823 0.01184620933776425 0
544 0.08982721670300427 0.0149375992412256 0
545 0.1151107601088898 0.01428571428565106 0
546 0.09914836488929069 -0.02127736258513725 0
547 0.02589666572727714 0.003240812626071067 0
548 0.08863733550764949 0.01305334013982584 0
549 0.07531098290984994 0.01811993764249859 0
550 0.09099707183755086 0.006167176257774661 0
551 0.005465526291400105 0.0003673950465941585 0
552 0.06263133775828106 -0.01259454397769837 0
553 0.02092998980740324 -0.0006632554818798237 0
554 0.114965972586463 -0.02580523933934398 0
555 0.09168297944293068 -0.009790767296531224 0
556 0.1014955190769726 -0.01173774384557641 0
557 0.004258415178750473 0.0312544100322102 0
558 0.004798886415730929 -0.03136444719869935 0
559 0.009998491958847749 -0.02884044092615268 0
560 0.1106927021104453 -0.0342883563038991 0
561 0.1111132676778574 0.03556285939868335 0
562 0.09394411086415175 0.001958074301594499 0
563 0.06462706509383266 -0.008802254515107676 0
564 0.01497563212368485 -0.0257627596589719 0
565 0.03976161614719318 0.01319219375886221 0
566 0.03971344864891815 0.01891291391461805 0
567 0.06628986031123281 -0.01242542740698072 0
568 0.03131144939369009 0.001034687946896671 0
569 0.06624836230814907 0.02566911678277158 0
570 0.08381674589626778 -0.01223751273833986 0
571 0.06349540850742247 0.01395950535684109 0
572 0.06862100895453674 -0.01504514996437673 0
573 0.08667121266666597 0.0169700907237062 0
574 0.0518968709497435 -0.001178223864193968 0
575 0.04978978322273654 -0.003690500912380024 0
576 0.04882543020352487 -0.0006845212389571648 0
577 0.06023624063891776 0.01319688341731861 0
578 0.06272399963396354 0.008756141417250389 0
579 0.02681914758261507 -0.03566408189732185 0
580 0.1099488001186862 -0.004235924578584321 0
581 0.0393290895123017 -0.01793122902630506 0
582 0.09181842526192525 -0.002645184308250788 0
583 0.06352609049163592 -0.02585976152106169 0
584 0.05900135292946734 -0.02553161843947947 0
585 0.08636427672229285 -0.01054052743535386 0
586 0.0991279911672347 0.01611170624253165 0
587 0.1039670735575395 0.02954862510019871 0
588 0.04546666322175129 -0.0350112136862251 0
589 0.1158737709332503 -0.0140061470165089 0
590 0.009921411418417087 0.01027172526005303 0
591 0.07499999999987725 -0.03607154083428049 0
592 0.07572752726215851 -0.01765856068798787 0
593 0.1030238989581846 -0.002587576863288572 0
594 0.08131381505458786 0.02173390129196001 0
595 0.05815197458833254 -0.0007314273683377807 0
596 0.08002721085991807 -0.02616086758623115 0
597 0.07324375384334421 -0.01511912359236436 0
598 0.07168523680769176 -0.02614707092872171 0
599 0.009741261076264409 -0.02345739160351984 0
600 0.05165203990060606 0.01929749758170726 0
601 0.05409139649572615 -0.005346317329722468 0
602 0.05182360786135439 -0.03527935779784985 0
603 0.09905771419960781 -0.01428723600585105 0
604 0.09484904647698825 0.02620619991178979 0
605 0.06637728918988707 -0.02382143166741096 0
606 0.05749946624861814 0.02288171697535134 0
607 0.03247683338561209 0.03569257368059654 0
608 0.06563895902002492 0.03147016456883506 0
609 0.04062801243735553 0.02437871351765224 0
610 0.05784175978087403 -0.01005039588396282 0
611 0.01232515799062255 0.03055980375222563 0
612 0.1036954715109338 0.01131460332782229 0
613 0.1044978214153809 0.007245377123856308 0
614 0.09574565925108645 -0.01967699685320512 0
615 0.09481943615471572 -0.02355192859791398 0
616 0.0971608452746615 0.01352798700336629 0
617 0.09033886956464918 -0.0225647386036647 0
618 0.0739229420749016 0.03547179494787411 0
619 0.06157956924106793 -0.02241551814232252 0
620 0.05498779548832222 -0.02302473846446443 0
621 0.05448437521289883 0.008809296515200083 0
622 0.08171306484464318 0.01374698367188446 0
623 0.08871814628409316 0.03106515905047841 0
624 0.101405848309367 0.009057868953147882 0
625 0.08935290782791663 -0.004358150451073125 0
626 0.04807295724880465 -0.02067680053432921 0
627 0.009535841697339644 0.01627182680952489 0
628 0.0837110407154644 0.02313137563341871 0
629 0.05576790827777792 -0.02006621734115546 0
630 0.06892810697308618 -0.01670388930252026 0
631 0.08329033625660918 -0.02686734832915637 0
632 0.07914576552467401 0.01452945565004533 0
633 0.07436208558535917 -0.01867192677649103 0
634 0.06832218837895865 -0.01326184821246723 0
635 0.06313759247965159 0.0159301484180191 0
636 0.06857725625040043 0.01407024521411893 0
637 0.06072328139480408 0.004923599616307527 0
638 0.1113101118846845 -0.02889894687394846 0
639 0.05589481866681791 0.02576317392473646 0
640 0.1024259984804466 0.003683266327173505 0
641 0.09217848087942976 -0.01186741057082987 0
642 0.06085501531813758 -0.01393664776893698 0
643 0.07886464595403751 -0.01827388669916671 0
644 0.009329521942347676 -0.01783367908828559 0
645 0.06611189231754017 0.0119615664291052 0
646 0.08745789269565306 -0.01242534125370134 0
647 0.0473809654488558 -0.006931115437204948 0
648 0.05121391439728334 -0.02353461110608827 0
649 0.0848158626687201 0.018818336492122 0
650 0.06995976829771022 0.01687007080126814 0
651 0.06681040013372655 -0.02659366265094167 0
652 0.06181597134377265 -0.007213407865951404 0
653 0.07391704110559869 0.01927071013346771 0
654 0.08488472176652355 -0.02394889198976651 0
655 0.01499999999996768 -0.03627175604682337 0
656 0.1106482485555374 0.02174835180299059 0
657 0.09320906929597032 0.003791125766429322 0
658 0.07042196137153828 -0.014009513545189 0
659 0.08830789593921878 -0.001594354661927862 0
660 0.008842049436366722 0.02257633291231759 0
661 0.0725658642073196 0.01825519868511025 0
662 0.03745787566404726 0.02897087436329782 0
663 0.1095337129225903 0.03054562039121057 0
664 0.06036845261840756 -0.002481300081126548 0
665 0.05159305918046039 -0.006227072128262723 0
666 0.05581926705506206 -0.03056025437913482 0
667 0.004249064002765137 -0.003749734477502905 0
668 0.09269755203034659 0.008707303571354425 0
669 0.08404403458880119 -0.01707705866906668 0
670 0.05878947221743266 -0.01347400196148124 0
671 0.06002556804655451 0.001613816794553156 0
672 0.07798099180126149 0.02534863160021767 0
673 0.03322675887085554 0.02066581657446984 0
674 0.0946766468278602 -0.002608391080425012 0
675 0.09550169138857974 0.03118318977593211 0
676 0.06102736636231496 -0.005495547088485358 0
677 0.07563921899837611 0.01665244147462498 0
678 0.08246951871568119 -0.01703152144540581 0
679 0.08416785185892402 0.01511314982666634 0
680 0.1157867668916931 0.03586896237912369 0
681 0.1157867668917021 -0.03586896237915219 0
682 0.02700000000007443 0.03654999203108819 0
683 0.07103463086348213 0.01836090375950048 0
684 0.06396952248330334 0.01012584799894997 0
685 0.004192162250013919 -0.03589108678033181 0
686 0.004056443889967379 0.03593272794301721 0
687 0.06839135416610063 0.01723873592211454 0
688 0.1061388852322552 -0.001077786723512553 0
689 0.08044383783546241 -0.03008299002275035 0
690 0.08804774279541148 -0.006525022146644219 0
691 0.0911019819421441 0.01648405631978325 0
692 0.09258728658083024 0.005447116602749917 0
693 0.05980476931382735 0.006242136268989713 0
694 0.08951853629149947 0.00635441207296109 0
695 0.08528710036310949 0.02145265309788813 0
696 0.06734828674262573 0.01301778250009966 0
697 0.05603773073311569 -0.009695031677960509 0
698 0.0772858591543262 -0.01854495334272752 0
699 0.04830067499609724 0.002324267598779372 0
700 0.04382156953737251 0.02013599604128846 0
701 0.008913699549016954 -0.01237826902715644 0
702 0.07289383208415859 -0.03311601897679761 0
703 0.1024907116984206 -0.03116016131926646 0
704 0.05233926311290142 0.009137121824194029 0
705 0.05869925365386435 -0.01163206456691827 0
706 0.07993064526220572 -0.0192924488029759 0
707 0.07160629742584666 -0.01491861099570497 0
708 0.05518672640736481 0.007057479739004467 0
709 0.008200374491468317 0.02862345045693289 0
710 0.004024892983139876 0.004243513175996755 0
711 0.05254606633106494 -0.008971339792944495 0
712 0.08109660790447426 0.02475723274875711 0
713 0.1118646972974774 0.01142766718047136 0
714 0.09546856614511343 -0.004074789312339724 0
715 0.06911396418627615 -0.02763564480484524 0
716 0.06465936604734637 -0.01196392336263619 0
717 0.09055386135768925 0.01326245645920079 0
718 0.09118604952107527 -0.01336704432931746 0
719 0.07046692379399683 0.01995529231683149 0
720 0.05888265429407234 0.01443361732386676 0
721 0.04893118887563869 0.01662885858440821 0
722 0.04458330893462104 -0.005727020157088208 0
723 0.05962492929156363 -0.00137195411215379 0
724 0.08582534876144102 0.01561632921342984 0
725 0.08132049842942166 -0.01447215465353873 0
$EndNodes
$Elements
1450
1 1 2 1 1 1 9
2 1 2 1 1 9 10
3 1 2 1 1 10 11
4 1 2 1 1 11 12
5 1 2 1 1 12 13
6 1 2 1 1 13 14
7 1 2 1 1 14 15
8 1 2 1 1 15 16
9 1 2 1 1 16 17
10 1 2 1 1 17 18
11 1 2 1 1 18 19
12 1 2 1 1 19 20
13 1 2 1 1 20 21
14 1 2 1 1 21 22
15 1 2 1 1 22 23
16 1 2 1 1 23 24
17 1 2 1 1 24 25
18 1 2 1 1 25 26
19 1 2 1 1 26 27
20 1 2 1 1 27 2
21 1 2 2 2 2 28
22 1 2 2 2 28 29
23 1 2 2 2 29 30
24 1 2 2 2 30 31
25 1 2 2 2 31 32
26 1 2 2 2 32 33
27 1 2 2 2 33 34
28 1 2 2 2 34 35
29 1 2 2 2 35 36
30 1 2 2 2 36 37
31 1 2 2 2 37 38
32 1 2 2 2 38 39
33 1 2 2 2 39 40
34 1 2 2 2 40 3
35 1 2 1 3 3 41
36 1 2 1 3 41 42
37 1 2 1 3 42 43
38 1 2 1 3 43 44
39 1 2 1 3 44 45
40 1 2 1 3 45 46
41 1 2 1 3 46 47
42 1 2 1 3 47 48
43 1 2 1 3 48 49
44 1 2 1 3 49 50
45 1 2 1 3 50 51
46 1 2 1 3 51 52
47 1 2 1 3 52 53
48 1 2 1 3 53 54
49 1 2 1 3 54 55
50 1 2 1 3 55 56
51 1 2 1 3 56 57
52 1 2 1 3 57 58
53 1 2 1 3 58 59
54 1 2 1 3 59 4
55 1 2 3 4 4 60
56 1 2 3 4 60 61
57 1 2 3 4 61 62
58 1 2 3 4 62 63
59 1 2 3 4 63 64
60 1 2 3 4 64 65
61 1 2 3 4 65 66
62 1 2 3 4 66 67
63 1 2 3 4 67 68
64 1 2 3 4 68 69
65 1 2 3 4 69 70
66 1 2 3 4 70 71
67 1 2 3 4 71 72
68 1 2 3 4 72 1
69 1 2 4 5 5 73
70 1 2 4 5 73 74
71 1 2 4 5 74 75
72 1 2 4 5 75 76
73 1 2 4 5 76 77
74 1 2 4 5 77 78
75 1 2 4 5 78 79
76 1 2 4 5 79 80
77 1 2 4 5 80 81
78 1 2 4 5 81 6
79 1 2 4 6 6 82
80 1 2 4 6 82 83
81 1 2 4 6 83 84
82 1 2 4 6 84 85
83 1 2 4 6 85 86
84 1 2 4 6 86 87
85 1 2 4 6 87 88
86 1 2 4 6 88 89
87 1 2 4 6 89 90
88 1 2 4 6 90 7
89 1 2 4 7 7 91
90 1 2 4 7 91 92
91 1 2 4 7 92 93
92 1 2 4 7 93 94
93 1 2 4 7 94 95
94 1 2 4 7 95 96
95 1 2 4 7 96 97
96 1 2 4 7 97 98
97 1 2 4 7 98 99
98 1 2 4 7 99 8
99 1 2 4 8 8 100
100 1 2 4 8 100 101
101 1 2 4 8 101 102
102 1 2 4 8 102 103
103 1 2 4 8 103 104
104 1 2 4 8 104 105
105 1 2 4 8 105 106
106 1 2 4 8 106 107
107 1 2 4 8 107 108
108 1 2 4 8 108 5
109 2 2 10 1 170 385 586
110 2 2 10 1 365 343 447
111 2 2 10 1 221 223 626
112 2 2 10 1 432 126 462
113 2 2 10 1 462 126 597
114 2 2 10 1 137 469 470
115 2 2 10 1 130 361 362
116 2 2 10 1 13 14 487
117 2 2 10 1 406 210 630
118 2 2 10 1 398 442 646
119 2 2 10 1 442 398 443
120 2 2 10 1 394 118 563
121 2 2 10 1 196 495 617
122 2 2 10 1 529 150 663
123 2 2 10 1 137 468 469
124 2 2 10 1 301 423 497
125 2 2 10 1 360 529 663
126 2 2 10 1 455 138 618
127 2 2 10 1 114 441 449
128 2 2 10 1 177 174 456
129 2 2 10 1 267 471 517
130 2 2 10 1 283 507 536
131 2 2 10 1 212 210 406
132 2 2 10 1 250 221 626
133 2 2 10 1 354 252 635
134 2 2 10 1 74 120 367
135 2 2 10 1 310 538 639
136 2 2 10 1 24 25 503
137 2 2 10 1 526 188 546
138 2 2 10 1 478 146 560
139 2 2 10 1 361 130 589
140 2 2 10 1 508 140 537
141 2 2 10 1 566 473 673
142 2 2 10 1 423 301 465
143 2 2 10 1 405 212 406
144 2 2 10 1 478 560 638
145 2 2 10 1 473 566 609
146 2 2 10 1 446 452 573
147 2 2 10 1 269 396 571
148 2 2 10 1 367 120 368
149 2 2 10 1 441 380 449
150 2 2 10 1 452 446 544
151 2 2 10 1 453 138 454
152 2 2 10 1 5 395 506
153 2 2 10 1 339 268 340
154 2 2 10 1 486 584 620
155 2 2 10 1 340 343 365
156 2 2 10 1 241 243 321
157 2 2 10 1 385 170 612
158 2 2 10 1 194 398 399
159 2 2 10 1 273 354 355
160 2 2 10 1 562 173 657
161 2 2 10 1 575 647 665
162 2 2 10 1 415 122 499
163 2 2 10 1 631 596 689
164 2 2 10 1 138 47 618
165 2 2 10 1 321 243 322
166 2 2 10 1 436 229 437
167 2 2 10 1 584 583 619
168 2 2 10 1 538 316 608
169 2 2 10 1 130 362 363
170 2 2 10 1 111 515 516
171 2 2 10 1 14 117 487
172 2 2 10 1 454 138 455
173 2 2 10 1 276 452 691
174 2 2 10 1 339 340 341
175 2 2 10 1 25 146 503
176 2 2 10 1 322 324 325
177 2 2 10 1 139 474 493
178 2 2 10 1 403 401 476
179 2 2 10 1 466 165 668
180 2 2 10 1 247 245 268
181 2 2 10 1 247 268 339
182 2 2 10 1 193 376 377
183 2 2 10 1 325 324 326
184 2 2 10 1 241 238 243
185 2 2 10 1 252 269 635
186 2 2 10 1 486 485 666
187 2 2 10 1 351 141 689
188 2 2 10 1 465 299 622
189 2 2 10 1 435 165 466
190 2 2 10 1 177 456 674
191 2 2 10 1 13 487 579
192 2 2 10 1 321 322 444
193 2 2 10 1 183 181 193
194 2 2 10 1 195 194 400
195 2 2 10 1 181 178 376
196 2 2 10 1 395 5 659
197 2 2 10 1 148 461 559
198 2 2 10 1 208 206 386
199 2 2 10 1 173 435 657
200 2 2 10 1 210 208 294
201 2 2 10 1 252 249 269
202 2 2 10 1 355 354 356
203 2 2 10 1 549 285 653
204 2 2 10 1 254 252 354
205 2 2 10 1 299 434 622
206 2 2 10 1 325 326 335
207 2 2 10 1 537 316 569
208 2 2 10 1 214 212 405
209 2 2 10 1 493 474 715
210 2 2 10 1 136 439 460
211 2 2 10 1 293 214 405
212 2 2 10 1 174 173 456
213 2 2 10 1 194 187 398
214 2 2 10 1 513 514 516
215 2 2 10 1 193 377 378
216 2 2 10 1 341 340 365
217 2 2 10 1 175 540 640
218 2 2 10 1 117 448 487
219 2 2 10 1 606 310 639
220 2 2 10 1 412 432 462
221 2 2 10 1 485 602 666
222 2 2 10 1 273 254 354
223 2 2 10 1 304 439 487
224 2 2 10 1 183 193 555
225 2 2 10 1 440 335 595
226 2 2 10 1 343 527 693
227 2 2 10 1 325 336 444
228 2 2 10 1 527 438 693
229 2 2 10 1 471 469 517
230 2 2 10 1 471 267 673
231 2 2 10 1 173 167 435
232 2 2 10 1 239 238 241
233 2 2 10 1 405 406 407
234 2 2 10 1 111 516 667
235 2 2 10 1 340 342 343
236 2 2 10 1 167 165 435
237 2 2 10 1 488 489 490
238 2 2 10 1 293 405 408
239 2 2 10 1 141 351 591
240 2 2 10 1 613 171 640
241 2 2 10 1 165 160 668
242 2 2 10 1 458 427 664
243 2 2 10 1 118 394 716
244 2 2 10 1 288 285 433
245 2 2 10 1 588 16 602
246 2 2 10 1 260 475 626
247 2 2 10 1 428 402 585
248 2 2 10 1 596 350 689
249 2 2 10 1 418 417 419
250 2 2 10 1 412 125 432
251 2 2 10 1 272 254 273
252 2 2 10 1 442 585 646
253 2 2 10 1 507 508 536
254 2 2 10 1 543 409 645
255 2 2 10 1 195 400 669
256 2 2 10 1 127 434 632
257 2 2 10 1 312 361 533
258 2 2 10 1 312 533 580
259 2 2 10 1 293 408 552
260 2 2 10 1 274 273 457
261 2 2 10 1 410 125 411
262 2 2 10 1 101 125 410
263 2 2 10 1 83 122 415
264 2 2 10 1 103 124 428
265 2 2 10 1 91 426 427
266 2 2 10 1 98 128 424
267 2 2 10 1 80 127 425
268 2 2 10 1 423 78 497
269 2 2 10 1 429 106 449
270 2 2 10 1 242 241 245
271 2 2 10 1 199 198 482
272 2 2 10 1 447 343 693
273 2 2 10 1 355 356 357
274 2 2 10 1 415 499 636
275 2 2 10 1 476 401 570
276 2 2 10 1 495 496 617
277 2 2 10 1 332 383 458
278 2 2 10 1 191 187 194
279 2 2 10 1 402 428 570
280 2 2 10 1 281 280 719
281 2 2 10 1 448 117 483
282 2 2 10 1 206 203 450
283 2 2 10 1 75 74 367
284 2 2 10 1 377 382 397
285 2 2 10 1 216 214 293
286 2 2 10 1 540 175 688
287 2 2 10 1 294 208 386
288 2 2 10 1 434 127 622
289 2 2 10 1 231 229 436
290 2 2 10 1 584 486 666
291 2 2 10 1 307 513 516
292 2 2 10 1 409 543 684
293 2 2 10 1 286 285 288
294 2 2 10 1 263 583 605
295 2 2 10 1 399 398 646
296 2 2 10 1 398 187 718
297 2 2 10 1 238 231 436
298 2 2 10 1 376 178 714
299 2 2 10 1 134 24 503
300 2 2 10 1 193 181 376
301 2 2 10 1 615 190 617
302 2 2 10 1 416 417 418
303 2 2 10 1 202 199 706
304 2 2 10 1 155 152 498
305 2 2 10 1 400 399 401
306 2 2 10 1 466 192 550
307 2 2 10 1 461 148 655
308 2 2 10 1 448 304 487
309 2 2 10 1 526 556 603
310 2 2 10 1 634 572 658
311 2 2 10 1 197 195 198
312 2 2 10 1 524 344 587
313 2 2 10 1 490 489 495
314 2 2 10 1 138 453 500
315 2 2 10 1 194 399 400
316 2 2 10 1 492 491 493
317 2 2 10 1 168 276 691
318 2 2 10 1 386 206 633
319 2 2 10 1 294 386 387
320 2 2 10 1 322 323 324
321 2 2 10 1 246 245 247
322 2 2 10 1 296 288 314
323 2 2 10 1 377 376 382
324 2 2 10 1 171 613 624
325 2 2 10 1 439 136 579
326 2 2 10 1 552 408 716
327 2 2 10 1 475 484 626
328 2 2 10 1 378 377 379
329 2 2 10 1 396 269 577
330 2 2 10 1 393 394 563
331 2 2 10 1 210 294 630
332 2 2 10 1 284 282 285
333 2 2 10 1 233 231 238
334 2 2 10 1 192 155 498
335 2 2 10 1 172 167 173
336 2 2 10 1 203 202 450
337 2 2 10 1 289 288 296
338 2 2 10 1 382 404 582
339 2 2 10 1 285 282 653
340 2 2 10 1 340 268 342
341 2 2 10 1 296 314 434
342 2 2 10 1 245 241 704
343 2 2 10 1 467 346 671
344 2 2 10 1 485 588 602
345 2 2 10 1 216 642 670
346 2 2 10 1 140 508 618
347 2 2 10 1 450 202 698
348 2 2 10 1 287 594 712
349 2 2 10 1 175 593 688
350 2 2 10 1 494 538 608
351 2 2 10 1 276 451 452
352 2 2 10 1 472 116 607
353 2 2 10 1 335 326 595
354 2 2 10 1 365 447 578
355 2 2 10 1 333 458 664
356 2 2 10 1 220 218 262
357 2 2 10 1 449 380 690
358 2 2 10 1 364 526 546
359 2 2 10 1 272 273 274
360 2 2 10 1 326 327 328
361 2 2 10 1 201 199 202
362 2 2 10 1 322 325 444
363 2 2 10 1 567 407 634
364 2 2 10 1 594 628 712
365 2 2 10 1 388 462 597
366 2 2 10 1 273 355 687
367 2 2 10 1 109 467 671
368 2 2 10 1 276 352 451
369 2 2 10 1 141 488 490
370 2 2 10 1 537 140 608
371 2 2 10 1 444 336 527
372 2 2 10 1 547 315 553
373 2 2 10 1 442 441 585
374 2 2 10 1 425 127 632
375 2 2 10 1 379 429 690
376 2 2 10 1 330 332 458
377 2 2 10 1 538 519 639
378 2 2 10 1 248 247 249
379 2 2 10 1 414 412 462
380 2 2 10 1 116 472 662
381 2 2 10 1 456 404 674
382 2 2 10 1 176 174 177
383 2 2 10 1 502 479 615
384 2 2 10 1 145 524 587
385 2 2 10 1 207 206 208
386 2 2 10 1 429 449 690
387 2 2 10 1 372 369 506
388 2 2 10 1 191 194 195
389 2 2 10 1 418 420 499
390 2 2 10 1 454 672 712
391 2 2 10 1 429 379 625
392 2 2 10 1 341 365 366
393 2 2 10 1 575 437 647
394 2 2 10 1 491 139 493
395 2 2 10 1 325 335 336
396 2 2 10 1 436 437 576
397 2 2 10 1 488 134 489
398 2 2 10 1 135 491 492
399 2 2 10 1 441 114 585
400 2 2 10 1 454 455 507
401 2 2 10 1 328 330 333
402 2 2 10 1 487 439 579
403 2 2 10 1 431 601 665
404 2 2 10 1 205 203 206
405 2 2 10 1 343 342 527
406 2 2 10 1 421 447 637
407 2 2 10 1 233 238 239
408 2 2 10 1 427 458 676
409 2 2 10 1 280 274 719
410 2 2 10 1 299 296 434
411 2 2 10 1 280 281 282
412 2 2 10 1 182 181 183
413 2 2 10 1 470 469 471
414 2 2 10 1 457 273 687
415 2 2 10 1 470 472 607
416 2 2 10 1 255 541 600
417 2 2 10 1 297 296 299
418 2 2 10 1 223 260 626
419 2 2 10 1 187 185 718
420 2 2 10 1 401 399 402
421 2 2 10 1 647 236 665
422 2 2 10 1 180 178 181
423 2 2 10 1 136 460 461
424 2 2 10 1 199 482 706
425 2 2 10 1 239 241 242
426 2 2 10 1 332 338 383
427 2 2 10 1 328 329 330
428 2 2 10 1 224 222 236
429 2 2 10 1 115 153 497
430 2 2 10 1 209 208 210
431 2 2 10 1 433 285 549
432 2 2 10 1 251 249 252
433 2 2 10 1 403 476 725
434 2 2 10 1 468 137 511
435 2 2 10 1 637 447 693
436 2 2 10 1 336 335 346
437 2 2 10 1 428 124 570
438 2 2 10 1 526 313 556
439 2 2 10 1 495 196 654
440 2 2 10 1 547 318 568
441 2 2 10 1 454 507 672
442 2 2 10 1 197 198 199
443 2 2 10 1 151 75 367
444 2 2 10 1 198 195 669
445 2 2 10 1 419 549 653
446 2 2 10 1 400 401 403
447 2 2 10 1 605 583 651
448 2 2 10 1 368 120 369
449 2 2 10 1 357 356 359
450 2 2 10 1 452 451 573
451 2 2 10 1 427 426 664
452 2 2 10 1 183 555 641
453 2 2 10 1 470 607 682
454 2 2 10 1 152 151 498
455 2 2 10 1 335 440 671
456 2 2 10 1 355 357 358
457 2 2 10 1 363 362 364
458 2 2 10 1 322 243 323
459 2 2 10 1 170 586 616
460 2 2 10 1 76 75 151
461 2 2 10 1 73 5 506
462 2 2 10 1 84 83 415
463 2 2 10 1 102 101 410
464 2 2 10 1 99 98 424
465 2 2 10 1 81 80 425
466 2 2 10 1 79 78 423
467 2 2 10 1 92 91 427
468 2 2 10 1 104 103 428
469 2 2 10 1 107 106 429
470 2 2 10 1 480 110 652
471 2 2 10 1 268 245 621
472 2 2 10 1 481 403 725
473 2 2 10 1 405 407 408
474 2 2 10 1 328 333 595
475 2 2 10 1 516 514 551
476 2 2 10 1 184 183 185
477 2 2 10 1 396 543 571
478 2 2 10 1 543 359 571
479 2 2 10 1 294 387 389
480 2 2 10 1 424 128 658
481 2 2 10 1 490 631 689
482 2 2 10 1 321 444 708
483 2 2 10 1 122 416 418
484 2 2 10 1 416 123 417
485 2 2 10 1 426 109 440
486 2 2 10 1 421 113 447
487 2 2 10 1 172 173 174
488 2 2 10 1 284 285 286
489 2 2 10 1 330 331 332
490 2 2 10 1 279 536 537
491 2 2 10 1 395 372 506
492 2 2 10 1 316 537 608
493 2 2 10 1 585 402 646
494 2 2 10 1 387 386 388
495 2 2 10 1 249 247 720
496 2 2 10 1 153 301 497
497 2 2 10 1 128 634 658
498 2 2 10 1 314 288 433
499 2 2 10 1 318 547 553
500 2 2 10 1 242 245 246
501 2 2 10 1 489 134 502
502 2 2 10 1 211 210 212
503 2 2 10 1 652 110 676
504 2 2 10 1 479 546 615
505 2 2 10 1 318 509 568
506 2 2 10 1 369 120 506
507 2 2 10 1 443 398 718
508 2 2 10 1 247 339 720
509 2 2 10 1 253 252 254
510 2 2 10 1 494 133 538
511 2 2 10 1 430 567 634
512 2 2 10 1 417 123 525
513 2 2 10 1 418 419 420
514 2 2 10 1 504 566 673
515 2 2 10 1 192 466 668
516 2 2 10 1 225 227 581
517 2 2 10 1 411 125 412
518 2 2 10 1 508 455 618
519 2 2 10 1 336 438 527
520 2 2 10 1 431 665 711
521 2 2 10 1 499 358 636
522 2 2 10 1 332 337 338
523 2 2 10 1 141 490 689
524 2 2 10 1 378 379 380
525 2 2 10 1 286 288 289
526 2 2 10 1 458 383 676
527 2 2 10 1 385 278 586
528 2 2 10 1 201 202 203
529 2 2 10 1 326 324 327
530 2 2 10 1 502 134 503
531 2 2 10 1 379 377 397
532 2 2 10 1 140 49 494
533 2 2 10 1 220 262 477
534 2 2 10 1 206 450 633
535 2 2 10 1 300 573 649
536 2 2 10 1 341 366 396
537 2 2 10 1 112 514 590
538 2 2 10 1 492 493 583
539 2 2 10 1 21 22 141
540 2 2 10 1 19 20 139
541 2 2 10 1 48 49 140
542 2 2 10 1 46 47 138
543 2 2 10 1 484 485 486
544 2 2 10 1 473 471 673
545 2 2 10 1 228 226 229
546 2 2 10 1 186 185 187
547 2 2 10 1 532 539 540
548 2 2 10 1 419 653 661
549 2 2 10 1 513 307 553
550 2 2 10 1 168 275 276
551 2 2 10 1 230 229 231
552 2 2 10 1 333 330 458
553 2 2 10 1 229 226 722
554 2 2 10 1 236 222 711
555 2 2 10 1 276 295 352
556 2 2 10 1 404 382 674
557 2 2 10 1 126 424 597
558 2 2 10 1 314 433 525
559 2 2 10 1 397 382 582
560 2 2 10 1 176 177 178
561 2 2 10 1 541 542 600
562 2 2 10 1 139 591 702
563 2 2 10 1 213 212 214
564 2 2 10 1 383 338 384
565 2 2 10 1 470 471 472
566 2 2 10 1 529 360 656
567 2 2 10 1 394 552 716
568 2 2 10 1 246 247 248
569 2 2 10 1 546 188 614
570 2 2 10 1 238 436 699
571 2 2 10 1 336 346 438
572 2 2 10 1 262 218 670
573 2 2 10 1 271 254 272
574 2 2 10 1 447 113 578
575 2 2 10 1 368 369 370
576 2 2 10 1 384 391 393
577 2 2 10 1 124 476 570
578 2 2 10 1 363 364 478
579 2 2 10 1 113 422 578
580 2 2 10 1 572 389 658
581 2 2 10 1 23 134 488
582 2 2 10 1 135 18 491
583 2 2 10 1 459 132 623
584 2 2 10 1 188 526 603
585 2 2 10 1 122 82 416
586 2 2 10 1 125 100 432
587 2 2 10 1 6 123 416
588 2 2 10 1 8 126 432
589 2 2 10 1 93 110 480
590 2 2 10 1 85 121 409
591 2 2 10 1 77 115 497
592 2 2 10 1 7 109 426
593 2 2 10 1 86 409 422
594 2 2 10 1 128 97 430
595 2 2 10 1 113 87 422
596 2 2 10 1 105 114 449
597 2 2 10 1 88 113 421
598 2 2 10 1 109 90 467
599 2 2 10 1 96 118 430
600 2 2 10 1 89 421 467
601 2 2 10 1 408 407 567
602 2 2 10 1 122 418 499
603 2 2 10 1 266 584 619
604 2 2 10 1 289 296 297
605 2 2 10 1 480 393 563
606 2 2 10 1 235 228 509
607 2 2 10 1 133 518 519
608 2 2 10 1 559 461 564
609 2 2 10 1 311 580 688
610 2 2 10 1 532 531 539
611 2 2 10 1 57 58 511
612 2 2 10 1 141 22 488
613 2 2 10 1 19 139 491
614 2 2 10 1 475 260 581
615 2 2 10 1 218 216 670
616 2 2 10 1 345 278 385
617 2 2 10 1 411 412 413
618 2 2 10 1 158 155 192
619 2 2 10 1 479 502 503
620 2 2 10 1 378 380 381
621 2 2 10 1 315 513 553
622 2 2 10 1 544 446 548
623 2 2 10 1 422 409 684
624 2 2 10 1 507 283 672
625 2 2 10 1 205 206 207
626 2 2 10 1 520 522 523
627 2 2 10 1 308 320 505
628 2 2 10 1 46 138 500
629 2 2 10 1 137 57 511
630 2 2 10 1 58 147 511
631 2 2 10 1 472 471 473
632 2 2 10 1 463 385 464
633 2 2 10 1 222 220 477
634 2 2 10 1 370 369 371
635 2 2 10 1 393 391 394
636 2 2 10 1 520 521 522
637 2 2 10 1 308 505 510
638 2 2 10 1 49 50 494
639 2 2 10 1 50 133 494
640 2 2 10 1 519 518 520
641 2 2 10 1 185 183 641
642 2 2 10 1 131 531 532
643 2 2 10 1 478 364 479
644 2 2 10 1 411 413 481
645 2 2 10 1 413 412 414
646 2 2 10 1 305 270 510
647 2 2 10 1 228 230 509
648 2 2 10 1 53 116 521
649 2 2 10 1 381 380 441
650 2 2 10 1 326 328 595
651 2 2 10 1 521 116 522
652 2 2 10 1 190 187 191
653 2 2 10 1 359 543 645
654 2 2 10 1 505 305 510
655 2 2 10 1 52 53 521
656 2 2 10 1 240 234 504
657 2 2 10 1 270 257 510
658 2 2 10 1 371 369 372
659 2 2 10 1 381 441 442
660 2 2 10 1 264 308 510
661 2 2 10 1 257 264 510
662 2 2 10 1 348 291 517
663 2 2 10 1 371 372 373
664 2 2 10 1 469 348 517
665 2 2 10 1 261 235 509
666 2 2 10 1 291 259 517
667 2 2 10 1 373 372 374
668 2 2 10 1 290 317 512
669 2 2 10 1 374 372 395
670 2 2 10 1 515 307 516
671 2 2 10 1 306 307 515
672 2 2 10 1 374 395 501
673 2 2 10 1 50 51 133
674 2 2 10 1 53 54 116
675 2 2 10 1 56 57 137
676 2 2 10 1 58 59 147
677 2 2 10 1 23 24 134
678 2 2 10 1 51 52 518
679 2 2 10 1 25 26 146
680 2 2 10 1 133 51 518
681 2 2 10 1 9 10 148
682 2 2 10 1 44 45 132
683 2 2 10 1 42 43 145
684 2 2 10 1 43 44 524
685 2 2 10 1 14 15 117
686 2 2 10 1 11 12 136
687 2 2 10 1 17 18 135
688 2 2 10 1 145 43 524
689 2 2 10 1 44 132 524
690 2 2 10 1 468 348 469
691 2 2 10 1 349 348 468
692 2 2 10 1 484 483 485
693 2 2 10 1 347 348 349
694 2 2 10 1 460 305 505
695 2 2 10 1 308 319 320
696 2 2 10 1 319 306 515
697 2 2 10 1 475 483 484
698 2 2 10 1 347 291 348
699 2 2 10 1 513 512 514
700 2 2 10 1 439 305 460
701 2 2 10 1 308 306 319
702 2 2 10 1 475 448 483
703 2 2 10 1 315 512 513
704 2 2 10 1 317 291 347
705 2 2 10 1 306 265 307
706 2 2 10 1 318 261 509
707 2 2 10 1 304 305 439
708 2 2 10 1 303 448 475
709 2 2 10 1 264 306 308
710 2 2 10 1 301 445 465
711 2 2 10 1 315 290 512
712 2 2 10 1 290 291 317
713 2 2 10 1 304 270 305
714 2 2 10 1 264 265 306
715 2 2 10 1 265 261 318
716 2 2 10 1 303 304 448
717 2 2 10 1 301 157 445
718 2 2 10 1 267 240 504
719 2 2 10 1 258 290 315
720 2 2 10 1 290 259 291
721 2 2 10 1 259 267 517
722 2 2 10 1 264 261 265
723 2 2 10 1 303 270 304
724 2 2 10 1 153 157 301
725 2 2 10 1 258 259 290
726 2 2 10 1 259 240 267
727 2 2 10 1 257 261 264
728 2 2 10 1 256 270 303
729 2 2 10 1 614 190 615
730 2 2 10 1 232 231 233
731 2 2 10 1 154 152 155
732 2 2 10 1 153 154 157
733 2 2 10 1 258 240 259
734 2 2 10 1 384 390 391
735 2 2 10 1 257 235 261
736 2 2 10 1 256 257 270
737 2 2 10 1 518 52 521
738 2 2 10 1 352 353 375
739 2 2 10 1 153 152 154
740 2 2 10 1 237 240 258
741 2 2 10 1 346 467 637
742 2 2 10 1 151 367 498
743 2 2 10 1 328 327 329
744 2 2 10 1 595 333 723
745 2 2 10 1 215 214 216
746 2 2 10 1 256 235 257
747 2 2 10 1 456 173 562
748 2 2 10 1 94 480 563
749 2 2 10 1 118 95 563
750 2 2 10 1 279 274 280
751 2 2 10 1 519 520 541
752 2 2 10 1 492 584 666
753 2 2 10 1 180 181 182
754 2 2 10 1 115 152 153
755 2 2 10 1 237 234 240
756 2 2 10 1 314 525 632
757 2 2 10 1 520 518 521
758 2 2 10 1 129 463 545
759 2 2 10 1 243 238 699
760 2 2 10 1 394 391 552
761 2 2 10 1 396 366 543
762 2 2 10 1 137 470 682
763 2 2 10 1 18 19 491
764 2 2 10 1 22 23 488
765 2 2 10 1 414 462 592
766 2 2 10 1 495 489 496
767 2 2 10 1 260 225 581
768 2 2 10 1 535 590 627
769 2 2 10 1 274 457 719
770 2 2 10 1 499 420 650
771 2 2 10 1 327 324 574
772 2 2 10 1 248 249 251
773 2 2 10 1 525 425 632
774 2 2 10 1 461 460 564
775 2 2 10 1 164 160 165
776 2 2 10 1 207 208 209
777 2 2 10 1 364 362 526
778 2 2 10 1 609 566 700
779 2 2 10 1 552 392 642
780 2 2 10 1 5 108 659
781 2 2 10 1 279 537 569
782 2 2 10 1 166 165 167
783 2 2 10 1 535 112 590
784 2 2 10 1 227 235 256
785 2 2 10 1 258 315 547
786 2 2 10 1 297 299 300
787 2 2 10 1 130 363 554
788 2 2 10 1 21 141 591
789 2 2 10 1 139 20 591
790 2 2 10 1 384 338 390
791 2 2 10 1 597 424 707
792 2 2 10 1 401 402 570
793 2 2 10 1 397 501 625
794 2 2 10 1 196 195 197
795 2 2 10 1 307 265 553
796 2 2 10 1 417 525 677
797 2 2 10 1 114 428 585
798 2 2 10 1 430 118 567
799 2 2 10 1 269 249 720
800 2 2 10 1 460 505 564
801 2 2 10 1 514 112 710
802 2 2 10 1 523 609 700
803 2 2 10 1 373 374 404
804 2 2 10 1 132 45 500
805 2 2 10 1 70 71 528
806 2 2 10 1 38 39 529
807 2 2 10 1 35 36 143
808 2 2 10 1 67 68 111
809 2 2 10 1 68 69 530
810 2 2 10 1 34 35 531
811 2 2 10 1 69 70 142
812 2 2 10 1 37 38 129
813 2 2 10 1 39 40 150
814 2 2 10 1 28 29 149
815 2 2 10 1 33 34 131
816 2 2 10 1 30 31 130
817 2 2 10 1 62 63 144
818 2 2 10 1 61 62 534
819 2 2 10 1 63 64 535
820 2 2 10 1 32 33 533
821 2 2 10 1 64 65 112
822 2 2 10 1 293 552 642
823 2 2 10 1 121 415 696
824 2 2 10 1 217 216 218
825 2 2 10 1 26 27 560
826 2 2 10 1 41 42 561
827 2 2 10 1 282 281 653
828 2 2 10 1 133 519 538
829 2 2 10 1 182 183 184
830 2 2 10 1 375 453 454
831 2 2 10 1 115 151 152
832 2 2 10 1 124 410 476
833 2 2 10 1 123 425 525
834 2 2 10 1 222 477 711
835 2 2 10 1 407 406 572
836 2 2 10 1 232 234 237
837 2 2 10 1 241 321 704
838 2 2 10 1 330 329 331
839 2 2 10 1 434 314 632
840 2 2 10 1 435 466 692
841 2 2 10 1 423 465 622
842 2 2 10 1 501 119 625
843 2 2 10 1 573 451 649
844 2 2 10 1 339 341 577
845 2 2 10 1 541 523 542
846 2 2 10 1 391 392 552
847 2 2 10 1 83 82 122
848 2 2 10 1 101 100 125
849 2 2 10 1 103 102 124
850 2 2 10 1 85 84 121
851 2 2 10 1 94 93 480
852 2 2 10 1 77 76 115
853 2 2 10 1 82 6 416
854 2 2 10 1 100 8 432
855 2 2 10 1 91 7 426
856 2 2 10 1 88 87 113
857 2 2 10 1 106 105 449
858 2 2 10 1 86 85 409
859 2 2 10 1 80 79 127
860 2 2 10 1 98 97 128
861 2 2 10 1 74 73 120
862 2 2 10 1 6 81 123
863 2 2 10 1 8 99 126
864 2 2 10 1 93 92 110
865 2 2 10 1 90 89 467
866 2 2 10 1 108 107 119
867 2 2 10 1 105 104 114
868 2 2 10 1 87 86 422
869 2 2 10 1 7 90 109
870 2 2 10 1 78 77 497
871 2 2 10 1 96 95 118
872 2 2 10 1 97 96 430
873 2 2 10 1 89 88 421
874 2 2 10 1 283 282 284
875 2 2 10 1 237 258 547
876 2 2 10 1 533 131 580
877 2 2 10 1 269 571 635
878 2 2 10 1 368 370 550
879 2 2 10 1 660 349 709
880 2 2 10 1 501 397 582
881 2 2 10 1 36 37 545
882 2 2 10 1 233 239 565
883 2 2 10 1 228 229 230
884 2 2 10 1 528 558 559
885 2 2 10 1 504 565 566
886 2 2 10 1 209 210 211
887 2 2 10 1 171 167 172
888 2 2 10 1 251 252 253
889 2 2 10 1 232 233 234
890 2 2 10 1 533 361 589
891 2 2 10 1 124 102 410
892 2 2 10 1 121 84 415
893 2 2 10 1 126 99 424
894 2 2 10 1 123 81 425
895 2 2 10 1 115 76 151
896 2 2 10 1 120 73 506
897 2 2 10 1 110 92 427
898 2 2 10 1 127 79 423
899 2 2 10 1 114 104 428
900 2 2 10 1 119 107 429
901 2 2 10 1 237 547 568
902 2 2 10 1 230 231 232
903 2 2 10 1 479 364 546
904 2 2 10 1 558 148 559
905 2 2 10 1 157 154 548
906 2 2 10 1 136 12 579
907 2 2 10 1 534 660 709
908 2 2 10 1 483 117 588
909 2 2 10 1 481 413 482
910 2 2 10 1 474 302 598
911 2 2 10 1 154 155 156
912 2 2 10 1 672 287 712
913 2 2 10 1 393 480 652
914 2 2 10 1 110 427 676
915 2 2 10 1 496 502 615
916 2 2 10 1 15 16 588
917 2 2 10 1 332 331 337
918 2 2 10 1 509 230 568
919 2 2 10 1 559 564 599
920 2 2 10 1 227 256 581
921 2 2 10 1 265 318 553
922 2 2 10 1 200 199 201
923 2 2 10 1 463 129 656
924 2 2 10 1 47 48 618
925 2 2 10 1 391 390 392
926 2 2 10 1 219 218 220
927 2 2 10 1 303 475 581
928 2 2 10 1 531 143 539
929 2 2 10 1 514 512 590
930 2 2 10 1 584 266 620
931 2 2 10 1 352 375 628
932 2 2 10 1 150 561 663
933 2 2 10 1 345 385 463
934 2 2 10 1 142 70 528
935 2 2 10 1 111 68 530
936 2 2 10 1 129 38 529
937 2 2 10 1 69 142 530
938 2 2 10 1 39 150 529
939 2 2 10 1 35 143 531
940 2 2 10 1 131 34 531
941 2 2 10 1 33 131 533
942 2 2 10 1 62 144 534
943 2 2 10 1 144 63 535
944 2 2 10 1 64 112 535
945 2 2 10 1 445 157 446
946 2 2 10 1 507 455 508
947 2 2 10 1 184 185 186
948 2 2 10 1 374 501 582
949 2 2 10 1 504 234 565
950 2 2 10 1 45 46 500
951 2 2 10 1 462 388 592
952 2 2 10 1 16 17 602
953 2 2 10 1 239 244 565
954 2 2 10 1 415 636 696
955 2 2 10 1 334 327 574
956 2 2 10 1 136 461 655
957 2 2 10 1 143 36 545
958 2 2 10 1 37 129 545
959 2 2 10 1 567 118 716
960 2 2 10 1 29 30 554
961 2 2 10 1 366 365 578
962 2 2 10 1 362 313 526
963 2 2 10 1 175 174 176
964 2 2 10 1 116 54 607
965 2 2 10 1 146 26 560
966 2 2 10 1 42 145 561
967 2 2 10 1 276 275 295
968 2 2 10 1 496 615 617
969 2 2 10 1 350 351 689
970 2 2 10 1 539 464 613
971 2 2 10 1 211 212 213
972 2 2 10 1 193 378 555
973 2 2 10 1 227 228 235
974 2 2 10 1 505 320 564
975 2 2 10 1 192 498 694
976 2 2 10 1 253 254 271
977 2 2 10 1 367 368 694
978 2 2 10 1 380 379 690
979 2 2 10 1 464 539 713
980 2 2 10 1 419 417 677
981 2 2 10 1 149 29 554
982 2 2 10 1 30 130 554
983 2 2 10 1 178 177 714
984 2 2 10 1 438 346 637
985 2 2 10 1 525 433 677
986 2 2 10 1 384 393 652
987 2 2 10 1 371 373 562
988 2 2 10 1 381 442 443
989 2 2 10 1 375 454 712
990 2 2 10 1 520 523 541
991 2 2 10 1 60 61 557
992 2 2 10 1 71 72 558
993 2 2 10 1 221 220 222
994 2 2 10 1 299 465 679
995 2 2 10 1 540 539 613
996 2 2 10 1 156 155 158
997 2 2 10 1 485 483 588
998 2 2 10 1 503 146 703
999 2 2 10 1 540 613 640
1000 2 2 10 1 148 10 655
1001 2 2 10 1 11 136 655
1002 2 2 10 1 204 203 205
1003 2 2 10 1 272 274 279
1004 2 2 10 1 359 356 571
1005 2 2 10 1 457 650 683
1006 2 2 10 1 528 71 558
1007 2 2 10 1 61 534 557
1008 2 2 10 1 357 359 696
1009 2 2 10 1 536 508 537
1010 2 2 10 1 216 293 642
1011 2 2 10 1 410 411 725
1012 2 2 10 1 56 137 682
1013 2 2 10 1 232 237 568
1014 2 2 10 1 132 459 675
1015 2 2 10 1 186 187 190
1016 2 2 10 1 378 381 555
1017 2 2 10 1 226 224 647
1018 2 2 10 1 95 94 563
1019 2 2 10 1 356 354 635
1020 2 2 10 1 352 295 353
1021 2 2 10 1 565 244 566
1022 2 2 10 1 309 345 360
1023 2 2 10 1 344 524 675
1024 2 2 10 1 213 214 215
1025 2 2 10 1 250 620 629
1026 2 2 10 1 179 178 180
1027 2 2 10 1 578 422 684
1028 2 2 10 1 144 627 660
1029 2 2 10 1 191 195 196
1030 2 2 10 1 404 374 582
1031 2 2 10 1 324 323 574
1032 2 2 10 1 132 500 623
1033 2 2 10 1 515 111 701
1034 2 2 10 1 154 156 548
1035 2 2 10 1 223 222 224
1036 2 2 10 1 482 198 678
1037 2 2 10 1 464 385 612
1038 2 2 10 1 564 320 599
1039 2 2 10 1 560 149 638
1040 2 2 10 1 351 302 474
1041 2 2 10 1 142 528 599
1042 2 2 10 1 519 541 639
1043 2 2 10 1 530 644 701
1044 2 2 10 1 227 226 228
1045 2 2 10 1 527 342 708
1046 2 2 10 1 27 2 681
1047 2 2 10 1 3 41 680
1048 2 2 10 1 530 142 644
1049 2 2 10 1 280 282 283
1050 2 2 10 1 446 157 548
1051 2 2 10 1 522 116 662
1052 2 2 10 1 164 165 166
1053 2 2 10 1 130 31 589
1054 2 2 10 1 32 533 589
1055 2 2 10 1 144 535 627
1056 2 2 10 1 66 67 667
1057 2 2 10 1 387 388 597
1058 2 2 10 1 230 232 568
1059 2 2 10 1 361 313 362
1060 2 2 10 1 59 4 686
1061 2 2 10 1 1 9 685
1062 2 2 10 1 341 396 577
1063 2 2 10 1 549 419 677
1064 2 2 10 1 12 13 579
1065 2 2 10 1 40 3 680
1066 2 2 10 1 2 28 681
1067 2 2 10 1 477 262 697
1068 2 2 10 1 312 189 313
1069 2 2 10 1 542 244 721
1070 2 2 10 1 128 430 634
1071 2 2 10 1 375 353 453
1072 2 2 10 1 373 404 456
1073 2 2 10 1 65 66 710
1074 2 2 10 1 496 489 502
1075 2 2 10 1 215 216 217
1076 2 2 10 1 225 224 226
1077 2 2 10 1 146 478 703
1078 2 2 10 1 140 494 608
1079 2 2 10 1 346 335 671
1080 2 2 10 1 72 1 685
1081 2 2 10 1 4 60 686
1082 2 2 10 1 239 242 244
1083 2 2 10 1 338 337 610
1084 2 2 10 1 467 421 637
1085 2 2 10 1 197 199 200
1086 2 2 10 1 474 139 702
1087 2 2 10 1 550 192 694
1088 2 2 10 1 117 15 588
1089 2 2 10 1 180 182 556
1090 2 2 10 1 131 532 580
1091 2 2 10 1 159 161 162
1092 2 2 10 1 166 167 171
1093 2 2 10 1 279 280 536
1094 2 2 10 1 234 233 565
1095 2 2 10 1 409 121 645
1096 2 2 10 1 431 477 697
1097 2 2 10 1 650 420 683
1098 2 2 10 1 426 440 723
1099 2 2 10 1 172 174 175
1100 2 2 10 1 284 286 287
1101 2 2 10 1 476 410 725
1102 2 2 10 1 271 272 569
1103 2 2 10 1 468 511 611
1104 2 2 10 1 349 468 611
1105 2 2 10 1 162 163 168
1106 2 2 10 1 256 303 581
1107 2 2 10 1 512 317 590
1108 2 2 10 1 580 532 688
1109 2 2 10 1 217 218 219
1110 2 2 10 1 539 143 713
1111 2 2 10 1 383 652 676
1112 2 2 10 1 379 397 625
1113 2 2 10 1 313 189 556
1114 2 2 10 1 31 32 589
1115 2 2 10 1 119 501 659
1116 2 2 10 1 201 203 204
1117 2 2 10 1 309 360 587
1118 2 2 10 1 280 283 536
1119 2 2 10 1 484 486 648
1120 2 2 10 1 168 169 275
1121 2 2 10 1 277 309 344
1122 2 2 10 1 169 163 586
1123 2 2 10 1 541 255 639
1124 2 2 10 1 358 357 636
1125 2 2 10 1 551 66 667
1126 2 2 10 1 135 492 666
1127 2 2 10 1 309 278 345
1128 2 2 10 1 277 169 278
1129 2 2 10 1 451 352 695
1130 2 2 10 1 501 395 659
1131 2 2 10 1 176 178 179
1132 2 2 10 1 498 367 694
1133 2 2 10 1 650 457 687
1134 2 2 10 1 190 191 617
1135 2 2 10 1 219 220 221
1136 2 2 10 1 482 413 643
1137 2 2 10 1 66 551 710
1138 2 2 10 1 444 527 708
1139 2 2 10 1 17 135 602
1140 2 2 10 1 500 453 623
1141 2 2 10 1 225 226 227
1142 2 2 10 1 437 229 722
1143 2 2 10 1 403 481 678
1144 2 2 10 1 289 297 298
1145 2 2 10 1 300 299 679
1146 2 2 10 1 590 317 627
1147 2 2 10 1 602 135 666
1148 2 2 10 1 528 559 599
1149 2 2 10 1 159 158 160
1150 2 2 10 1 516 551 667
1151 2 2 10 1 312 313 361
1152 2 2 10 1 156 158 159
1153 2 2 10 1 310 271 316
1154 2 2 10 1 316 271 569
1155 2 2 10 1 523 522 609
1156 2 2 10 1 329 327 334
1157 2 2 10 1 345 463 656
1158 2 2 10 1 48 140 618
1159 2 2 10 1 54 55 607
1160 2 2 10 1 381 443 555
1161 2 2 10 1 294 389 630
1162 2 2 10 1 147 557 709
1163 2 2 10 1 221 222 223
1164 2 2 10 1 277 344 604
1165 2 2 10 1 414 592 698
1166 2 2 10 1 248 251 255
1167 2 2 10 1 207 209 292
1168 2 2 10 1 388 386 633
1169 2 2 10 1 511 147 611
1170 2 2 10 1 204 205 302
1171 2 2 10 1 175 176 593
1172 2 2 10 1 161 160 164
1173 2 2 10 1 223 225 260
1174 2 2 10 1 179 189 311
1175 2 2 10 1 373 456 562
1176 2 2 10 1 159 162 717
1177 2 2 10 1 358 499 650
1178 2 2 10 1 200 201 596
1179 2 2 10 1 390 338 610
1180 2 2 10 1 179 180 189
1181 2 2 10 1 20 21 591
1182 2 2 10 1 204 302 350
1183 2 2 10 1 402 399 646
1184 2 2 10 1 223 224 225
1185 2 2 10 1 337 331 431
1186 2 2 10 1 490 495 631
1187 2 2 10 1 413 414 643
1188 2 2 10 1 278 169 586
1189 2 2 10 1 621 245 704
1190 2 2 10 1 481 482 678
1191 2 2 10 1 142 599 644
1192 2 2 10 1 407 572 634
1193 2 2 10 1 184 186 188
1194 2 2 10 1 366 578 684
1195 2 2 10 1 371 562 657
1196 2 2 10 1 317 347 627
1197 2 2 10 1 532 540 688
1198 2 2 10 1 219 221 250
1199 2 2 10 1 211 213 263
1200 2 2 10 1 253 271 310
1201 2 2 10 1 272 279 569
1202 2 2 10 1 613 612 624
1203 2 2 10 1 389 387 707
1204 2 2 10 1 162 161 163
1205 2 2 10 1 334 574 575
1206 2 2 10 1 353 295 459
1207 2 2 10 1 129 529 656
1208 2 2 10 1 459 604 675
1209 2 2 10 1 215 217 266
1210 2 2 10 1 164 166 170
1211 2 2 10 1 196 197 654
1212 2 2 10 1 168 163 169
1213 2 2 10 1 611 147 709
1214 2 2 10 1 551 514 710
1215 2 2 10 1 389 572 630
1216 2 2 10 1 534 144 660
1217 2 2 10 1 160 158 668
1218 2 2 10 1 363 478 638
1219 2 2 10 1 342 268 621
1220 2 2 10 1 224 236 647
1221 2 2 10 1 275 169 277
1222 2 2 10 1 277 278 309
1223 2 2 10 1 592 450 698
1224 2 2 10 1 572 406 630
1225 2 2 10 1 466 550 692
1226 2 2 10 1 420 419 661
1227 2 2 10 1 437 575 576
1228 2 2 10 1 383 384 652
1229 2 2 10 1 201 204 596
1230 2 2 10 1 620 250 648
1231 2 2 10 1 607 55 682
1232 2 2 10 1 344 309 587
1233 2 2 10 1 159 160 161
1234 2 2 10 1 359 645 696
1235 2 2 10 1 350 302 351
1236 2 2 10 1 310 316 538
1237 2 2 10 1 311 189 312
1238 2 2 10 1 149 554 638
1239 2 2 10 1 627 347 660
1240 2 2 10 1 620 266 629
1241 2 2 10 1 370 371 657
1242 2 2 10 1 560 27 681
1243 2 2 10 1 41 561 680
1244 2 2 10 1 176 179 593
1245 2 2 10 1 320 319 644
1246 2 2 10 1 492 583 584
1247 2 2 10 1 189 180 556
1248 2 2 10 1 283 284 672
1249 2 2 10 1 604 344 675
1250 2 2 10 1 127 423 622
1251 2 2 10 1 440 109 671
1252 2 2 10 1 586 163 616
1253 2 2 10 1 172 175 640
1254 2 2 10 1 577 269 720
1255 2 2 10 1 433 549 677
1256 2 2 10 1 119 429 625
1257 2 2 10 1 355 358 687
1258 2 2 10 1 10 11 655
1259 2 2 10 1 593 311 688
1260 2 2 10 1 191 196 617
1261 2 2 10 1 347 349 660
1262 2 2 10 1 472 473 662
1263 2 2 10 1 554 363 638
1264 2 2 10 1 524 132 675
1265 2 2 10 1 438 637 693
1266 2 2 10 1 382 376 714
1267 2 2 10 1 479 503 703
1268 2 2 10 1 147 59 686
1269 2 2 10 1 9 148 685
1270 2 2 10 1 644 319 701
1271 2 2 10 1 162 544 717
1272 2 2 10 1 592 388 633
1273 2 2 10 1 561 145 663
1274 2 2 10 1 477 431 711
1275 2 2 10 1 111 530 701
1276 2 2 10 1 400 403 669
1277 2 2 10 1 171 172 640
1278 2 2 10 1 311 312 580
1279 2 2 10 1 286 289 594
1280 2 2 10 1 450 592 633
1281 2 2 10 1 267 504 673
1282 2 2 10 1 575 574 576
1283 2 2 10 1 302 205 598
1284 2 2 10 1 463 464 713
1285 2 2 10 1 244 242 721
1286 2 2 10 1 287 286 594
1287 2 2 10 1 574 323 576
1288 2 2 10 1 205 207 598
1289 2 2 10 1 226 647 722
1290 2 2 10 1 465 445 679
1291 2 2 10 1 55 56 682
1292 2 2 10 1 331 329 601
1293 2 2 10 1 179 311 593
1294 2 2 10 1 246 248 600
1295 2 2 10 1 244 542 700
1296 2 2 10 1 204 350 596
1297 2 2 10 1 162 168 691
1298 2 2 10 1 657 435 692
1299 2 2 10 1 542 523 700
1300 2 2 10 1 478 479 703
1301 2 2 10 1 360 345 656
1302 2 2 10 1 601 334 665
1303 2 2 10 1 200 596 631
1304 2 2 10 1 295 275 604
1305 2 2 10 1 319 515 701
1306 2 2 10 1 352 628 695
1307 2 2 10 1 182 184 603
1308 2 2 10 1 334 575 665
1309 2 2 10 1 664 426 723
1310 2 2 10 1 209 211 605
1311 2 2 10 1 251 253 606
1312 2 2 10 1 411 481 725
1313 2 2 10 1 158 192 668
1314 2 2 10 1 149 560 681
1315 2 2 10 1 561 150 680
1316 2 2 10 1 67 111 667
1317 2 2 10 1 108 119 659
1318 2 2 10 1 474 598 715
1319 2 2 10 1 556 182 603
1320 2 2 10 1 370 657 692
1321 2 2 10 1 297 300 649
1322 2 2 10 1 628 375 712
1323 2 2 10 1 337 431 697
1324 2 2 10 1 145 587 663
1325 2 2 10 1 546 614 615
1326 2 2 10 1 543 366 684
1327 2 2 10 1 545 463 713
1328 2 2 10 1 665 236 711
1329 2 2 10 1 275 277 604
1330 2 2 10 1 571 356 635
1331 2 2 10 1 612 170 624
1332 2 2 10 1 150 40 680
1333 2 2 10 1 28 149 681
1334 2 2 10 1 289 298 594
1335 2 2 10 1 548 156 717
1336 2 2 10 1 464 612 613
1337 2 2 10 1 164 170 616
1338 2 2 10 1 599 320 644
1339 2 2 10 1 298 297 649
1340 2 2 10 1 186 190 614
1341 2 2 10 1 594 298 628
1342 2 2 10 1 329 334 601
1343 2 2 10 1 197 200 654
1344 2 2 10 1 550 370 692
1345 2 2 10 1 219 250 629
1346 2 2 10 1 207 292 598
1347 2 2 10 1 213 215 619
1348 2 2 10 1 248 255 600
1349 2 2 10 1 358 650 687
1350 2 2 10 1 446 573 724
1351 2 2 10 1 292 209 605
1352 2 2 10 1 431 331 601
1353 2 2 10 1 255 251 606
1354 2 2 10 1 445 446 724
1355 2 2 10 1 368 550 694
1356 2 2 10 1 555 443 641
1357 2 2 10 1 161 164 616
1358 2 2 10 1 459 295 604
1359 2 2 10 1 112 65 710
1360 2 2 10 1 566 244 700
1361 2 2 10 1 184 188 603
1362 2 2 10 1 211 263 605
1363 2 2 10 1 253 310 606
1364 2 2 10 1 215 266 619
1365 2 2 10 1 453 353 623
1366 2 2 10 1 166 171 624
1367 2 2 10 1 349 611 709
1368 2 2 10 1 387 597 707
1369 2 2 10 1 557 147 686
1370 2 2 10 1 148 558 685
1371 2 2 10 1 300 679 724
1372 2 2 10 1 188 186 614
1373 2 2 10 1 298 649 695
1374 2 2 10 1 573 300 724
1375 2 2 10 1 284 287 672
1376 2 2 10 1 217 219 629
1377 2 2 10 1 263 213 619
1378 2 2 10 1 557 534 709
1379 2 2 10 1 163 161 616
1380 2 2 10 1 558 72 685
1381 2 2 10 1 60 557 686
1382 2 2 10 1 587 360 663
1383 2 2 10 1 323 243 699
1384 2 2 10 1 576 323 699
1385 2 2 10 1 200 631 654
1386 2 2 10 1 262 610 697
1387 2 2 10 1 679 445 724
1388 2 2 10 1 353 459 623
1389 2 2 10 1 170 166 624
1390 2 2 10 1 143 545 713
1391 2 2 10 1 544 548 717
1392 2 2 10 1 390 610 705
1393 2 2 10 1 266 217 629
1394 2 2 10 1 452 544 691
1395 2 2 10 1 674 382 714
1396 2 2 10 1 651 493 715
1397 2 2 10 1 250 626 648
1398 2 2 10 1 609 522 662
1399 2 2 10 1 473 609 662
1400 2 2 10 1 583 493 651
1401 2 2 10 1 292 605 651
1402 2 2 10 1 610 337 697
1403 2 2 10 1 255 606 639
1404 2 2 10 1 392 390 705
1405 2 2 10 1 242 246 721
1406 2 2 10 1 408 567 716
1407 2 2 10 1 440 595 723
1408 2 2 10 1 642 392 670
1409 2 2 10 1 591 351 702
1410 2 2 10 1 544 162 691
1411 2 2 10 1 246 600 721
1412 2 2 10 1 339 577 720
1413 2 2 10 1 351 474 702
1414 2 2 10 1 649 451 695
1415 2 2 10 1 486 620 648
1416 2 2 10 1 482 643 706
1417 2 2 10 1 658 389 707
1418 2 2 10 1 641 443 718
1419 2 2 10 1 156 159 717
1420 2 2 10 1 262 670 705
1421 2 2 10 1 626 484 648
1422 2 2 10 1 598 292 715
1423 2 2 10 1 631 495 654
1424 2 2 10 1 653 281 661
1425 2 2 10 1 342 621 708
1426 2 2 10 1 643 414 698
1427 2 2 10 1 628 298 695
1428 2 2 10 1 420 661 683
1429 2 2 10 1 645 121 696
1430 2 2 10 1 669 403 678
1431 2 2 10 1 636 357 696
1432 2 2 10 1 436 576 699
1433 2 2 10 1 621 321 708
1434 2 2 10 1 292 651 715
1435 2 2 10 1 610 262 705
1436 2 2 10 1 600 542 721
1437 2 2 10 1 185 641 718
1438 2 2 10 1 424 658 707
1439 2 2 10 1 661 281 683
1440 2 2 10 1 670 392 705
1441 2 2 10 1 202 643 698
1442 2 2 10 1 647 437 722
1443 2 2 10 1 321 621 704
1444 2 2 10 1 198 669 678
1445 2 2 10 1 333 664 723
1446 2 2 10 1 643 202 706
1447 2 2 10 1 177 674 714
1448 2 2 10 1 457 683 719
1449 2 2 10 1 683 281 719
1450 2 2 10 1 583 263 619
$EndElements
